# MGM Seyyal parachute canopy
v 0.000000 0.000000 0.700000
v 0.195789 0.000000 0.694011
v 0.194847 0.019191 0.694011
v 0.192027 0.038197 0.694011
v 0.187359 0.056835 0.694011
v 0.180886 0.074925 0.694011
v 0.172671 0.092294 0.694011
v 0.162793 0.108775 0.694011
v 0.151347 0.124207 0.694011
v 0.138444 0.138444 0.694011
v 0.124207 0.151347 0.694011
v 0.108775 0.162793 0.694011
v 0.092294 0.172671 0.694011
v 0.074925 0.180886 0.694011
v 0.056835 0.187359 0.694011
v 0.038197 0.192027 0.694011
v 0.019191 0.194847 0.694011
v 0.000000 0.195789 0.694011
v -0.019191 0.194847 0.694011
v -0.038197 0.192027 0.694011
v -0.056835 0.187359 0.694011
v -0.074925 0.180886 0.694011
v -0.092294 0.172671 0.694011
v -0.108775 0.162793 0.694011
v -0.124207 0.151347 0.694011
v -0.138444 0.138444 0.694011
v -0.151347 0.124207 0.694011
v -0.162793 0.108775 0.694011
v -0.172671 0.092294 0.694011
v -0.180886 0.074925 0.694011
v -0.187359 0.056835 0.694011
v -0.192027 0.038197 0.694011
v -0.194847 0.019191 0.694011
v -0.195789 0.000000 0.694011
v -0.194847 -0.019191 0.694011
v -0.192027 -0.038197 0.694011
v -0.187359 -0.056835 0.694011
v -0.180886 -0.074925 0.694011
v -0.172671 -0.092294 0.694011
v -0.162793 -0.108775 0.694011
v -0.151347 -0.124207 0.694011
v -0.138444 -0.138444 0.694011
v -0.124207 -0.151347 0.694011
v -0.108775 -0.162793 0.694011
v -0.092294 -0.172671 0.694011
v -0.074925 -0.180886 0.694011
v -0.056835 -0.187359 0.694011
v -0.038197 -0.192027 0.694011
v -0.019191 -0.194847 0.694011
v -0.000000 -0.195789 0.694011
v 0.019191 -0.194847 0.694011
v 0.038197 -0.192027 0.694011
v 0.056835 -0.187359 0.694011
v 0.074925 -0.180886 0.694011
v 0.092294 -0.172671 0.694011
v 0.108775 -0.162793 0.694011
v 0.124207 -0.151347 0.694011
v 0.138444 -0.138444 0.694011
v 0.151347 -0.124207 0.694011
v 0.162793 -0.108775 0.694011
v 0.172671 -0.092294 0.694011
v 0.180886 -0.074925 0.694011
v 0.187359 -0.056835 0.694011
v 0.192027 -0.038197 0.694011
v 0.194847 -0.019191 0.694011
v 0.388229 0.000000 0.676148
v 0.386359 0.038053 0.676148
v 0.380769 0.075740 0.676148
v 0.371512 0.112697 0.676148
v 0.358676 0.148569 0.676148
v 0.342387 0.183010 0.676148
v 0.322800 0.215688 0.676148
v 0.300105 0.246290 0.676148
v 0.274519 0.274519 0.676148
v 0.246290 0.300105 0.676148
v 0.215688 0.322800 0.676148
v 0.183010 0.342387 0.676148
v 0.148569 0.358676 0.676148
v 0.112697 0.371512 0.676148
v 0.075740 0.380769 0.676148
v 0.038053 0.386359 0.676148
v 0.000000 0.388229 0.676148
v -0.038053 0.386359 0.676148
v -0.075740 0.380769 0.676148
v -0.112697 0.371512 0.676148
v -0.148569 0.358676 0.676148
v -0.183010 0.342387 0.676148
v -0.215688 0.322800 0.676148
v -0.246290 0.300105 0.676148
v -0.274519 0.274519 0.676148
v -0.300105 0.246290 0.676148
v -0.322800 0.215688 0.676148
v -0.342387 0.183010 0.676148
v -0.358676 0.148569 0.676148
v -0.371512 0.112697 0.676148
v -0.380769 0.075740 0.676148
v -0.386359 0.038053 0.676148
v -0.388229 0.000000 0.676148
v -0.386359 -0.038053 0.676148
v -0.380769 -0.075740 0.676148
v -0.371512 -0.112697 0.676148
v -0.358676 -0.148569 0.676148
v -0.342387 -0.183010 0.676148
v -0.322800 -0.215688 0.676148
v -0.300105 -0.246290 0.676148
v -0.274519 -0.274519 0.676148
v -0.246290 -0.300105 0.676148
v -0.215688 -0.322800 0.676148
v -0.183010 -0.342387 0.676148
v -0.148569 -0.358676 0.676148
v -0.112697 -0.371512 0.676148
v -0.075740 -0.380769 0.676148
v -0.038053 -0.386359 0.676148
v -0.000000 -0.388229 0.676148
v 0.038053 -0.386359 0.676148
v 0.075740 -0.380769 0.676148
v 0.112697 -0.371512 0.676148
v 0.148569 -0.358676 0.676148
v 0.183010 -0.342387 0.676148
v 0.215688 -0.322800 0.676148
v 0.246290 -0.300105 0.676148
v 0.274519 -0.274519 0.676148
v 0.300105 -0.246290 0.676148
v 0.322800 -0.215688 0.676148
v 0.342387 -0.183010 0.676148
v 0.358676 -0.148569 0.676148
v 0.371512 -0.112697 0.676148
v 0.380769 -0.075740 0.676148
v 0.386359 -0.038053 0.676148
v 0.574025 0.000000 0.646716
v 0.571261 0.056264 0.646716
v 0.562995 0.111987 0.646716
v 0.549308 0.166631 0.646716
v 0.530330 0.219670 0.646716
v 0.506245 0.270594 0.646716
v 0.477284 0.318911 0.646716
v 0.443727 0.364158 0.646716
v 0.405897 0.405897 0.646716
v 0.364158 0.443727 0.646716
v 0.318911 0.477284 0.646716
v 0.270594 0.506245 0.646716
v 0.219670 0.530330 0.646716
v 0.166631 0.549308 0.646716
v 0.111987 0.562995 0.646716
v 0.056264 0.571261 0.646716
v 0.000000 0.574025 0.646716
v -0.056264 0.571261 0.646716
v -0.111987 0.562995 0.646716
v -0.166631 0.549308 0.646716
v -0.219670 0.530330 0.646716
v -0.270594 0.506245 0.646716
v -0.318911 0.477284 0.646716
v -0.364158 0.443727 0.646716
v -0.405897 0.405897 0.646716
v -0.443727 0.364158 0.646716
v -0.477284 0.318911 0.646716
v -0.506245 0.270594 0.646716
v -0.530330 0.219670 0.646716
v -0.549308 0.166631 0.646716
v -0.562995 0.111987 0.646716
v -0.571261 0.056264 0.646716
v -0.574025 0.000000 0.646716
v -0.571261 -0.056264 0.646716
v -0.562995 -0.111987 0.646716
v -0.549308 -0.166631 0.646716
v -0.530330 -0.219670 0.646716
v -0.506245 -0.270594 0.646716
v -0.477284 -0.318911 0.646716
v -0.443727 -0.364158 0.646716
v -0.405897 -0.405897 0.646716
v -0.364158 -0.443727 0.646716
v -0.318911 -0.477284 0.646716
v -0.270594 -0.506245 0.646716
v -0.219670 -0.530330 0.646716
v -0.166631 -0.549308 0.646716
v -0.111987 -0.562995 0.646716
v -0.056264 -0.571261 0.646716
v -0.000000 -0.574025 0.646716
v 0.056264 -0.571261 0.646716
v 0.111987 -0.562995 0.646716
v 0.166631 -0.549308 0.646716
v 0.219670 -0.530330 0.646716
v 0.270594 -0.506245 0.646716
v 0.318911 -0.477284 0.646716
v 0.364158 -0.443727 0.646716
v 0.405897 -0.405897 0.646716
v 0.443727 -0.364158 0.646716
v 0.477284 -0.318911 0.646716
v 0.506245 -0.270594 0.646716
v 0.530330 -0.219670 0.646716
v 0.549308 -0.166631 0.646716
v 0.562995 -0.111987 0.646716
v 0.571261 -0.056264 0.646716
v 0.750000 0.000000 0.606218
v 0.746389 0.073513 0.606218
v 0.735589 0.146318 0.606218
v 0.717705 0.217714 0.606218
v 0.692910 0.287013 0.606218
v 0.661441 0.353548 0.606218
v 0.623602 0.416678 0.606218
v 0.579758 0.475795 0.606218
v 0.530330 0.530330 0.606218
v 0.475795 0.579758 0.606218
v 0.416678 0.623602 0.606218
v 0.353548 0.661441 0.606218
v 0.287013 0.692910 0.606218
v 0.217714 0.717705 0.606218
v 0.146318 0.735589 0.606218
v 0.073513 0.746389 0.606218
v 0.000000 0.750000 0.606218
v -0.073513 0.746389 0.606218
v -0.146318 0.735589 0.606218
v -0.217714 0.717705 0.606218
v -0.287013 0.692910 0.606218
v -0.353548 0.661441 0.606218
v -0.416678 0.623602 0.606218
v -0.475795 0.579758 0.606218
v -0.530330 0.530330 0.606218
v -0.579758 0.475795 0.606218
v -0.623602 0.416678 0.606218
v -0.661441 0.353548 0.606218
v -0.692910 0.287013 0.606218
v -0.717705 0.217714 0.606218
v -0.735589 0.146318 0.606218
v -0.746389 0.073513 0.606218
v -0.750000 0.000000 0.606218
v -0.746389 -0.073513 0.606218
v -0.735589 -0.146318 0.606218
v -0.717705 -0.217714 0.606218
v -0.692910 -0.287013 0.606218
v -0.661441 -0.353548 0.606218
v -0.623602 -0.416678 0.606218
v -0.579758 -0.475795 0.606218
v -0.530330 -0.530330 0.606218
v -0.475795 -0.579758 0.606218
v -0.416678 -0.623602 0.606218
v -0.353548 -0.661441 0.606218
v -0.287013 -0.692910 0.606218
v -0.217714 -0.717705 0.606218
v -0.146318 -0.735589 0.606218
v -0.073513 -0.746389 0.606218
v -0.000000 -0.750000 0.606218
v 0.073513 -0.746389 0.606218
v 0.146318 -0.735589 0.606218
v 0.217714 -0.717705 0.606218
v 0.287013 -0.692910 0.606218
v 0.353548 -0.661441 0.606218
v 0.416678 -0.623602 0.606218
v 0.475795 -0.579758 0.606218
v 0.530330 -0.530330 0.606218
v 0.579758 -0.475795 0.606218
v 0.623602 -0.416678 0.606218
v 0.661441 -0.353548 0.606218
v 0.692910 -0.287013 0.606218
v 0.717705 -0.217714 0.606218
v 0.735589 -0.146318 0.606218
v 0.746389 -0.073513 0.606218
v 0.913142 0.000000 0.555347
v 0.908745 0.089504 0.555347
v 0.895596 0.178145 0.555347
v 0.873823 0.265071 0.555347
v 0.843633 0.349444 0.555347
v 0.805319 0.430452 0.555347
v 0.759250 0.507315 0.555347
v 0.705868 0.579291 0.555347
v 0.645689 0.645689 0.555347
v 0.579291 0.705868 0.555347
v 0.507315 0.759250 0.555347
v 0.430452 0.805319 0.555347
v 0.349444 0.843633 0.555347
v 0.265071 0.873823 0.555347
v 0.178145 0.895596 0.555347
v 0.089504 0.908745 0.555347
v 0.000000 0.913142 0.555347
v -0.089504 0.908745 0.555347
v -0.178145 0.895596 0.555347
v -0.265071 0.873823 0.555347
v -0.349444 0.843633 0.555347
v -0.430452 0.805319 0.555347
v -0.507315 0.759250 0.555347
v -0.579291 0.705868 0.555347
v -0.645689 0.645689 0.555347
v -0.705868 0.579291 0.555347
v -0.759250 0.507315 0.555347
v -0.805319 0.430452 0.555347
v -0.843633 0.349444 0.555347
v -0.873823 0.265071 0.555347
v -0.895596 0.178145 0.555347
v -0.908745 0.089504 0.555347
v -0.913142 0.000000 0.555347
v -0.908745 -0.089504 0.555347
v -0.895596 -0.178145 0.555347
v -0.873823 -0.265071 0.555347
v -0.843633 -0.349444 0.555347
v -0.805319 -0.430452 0.555347
v -0.759250 -0.507315 0.555347
v -0.705868 -0.579291 0.555347
v -0.645689 -0.645689 0.555347
v -0.579291 -0.705868 0.555347
v -0.507315 -0.759250 0.555347
v -0.430452 -0.805319 0.555347
v -0.349444 -0.843633 0.555347
v -0.265071 -0.873823 0.555347
v -0.178145 -0.895596 0.555347
v -0.089504 -0.908745 0.555347
v -0.000000 -0.913142 0.555347
v 0.089504 -0.908745 0.555347
v 0.178145 -0.895596 0.555347
v 0.265071 -0.873823 0.555347
v 0.349444 -0.843633 0.555347
v 0.430452 -0.805319 0.555347
v 0.507315 -0.759250 0.555347
v 0.579291 -0.705868 0.555347
v 0.645689 -0.645689 0.555347
v 0.705868 -0.579291 0.555347
v 0.759250 -0.507315 0.555347
v 0.805319 -0.430452 0.555347
v 0.843633 -0.349444 0.555347
v 0.873823 -0.265071 0.555347
v 0.895596 -0.178145 0.555347
v 0.908745 -0.089504 0.555347
v 1.060660 0.000000 0.494975
v 1.055553 0.103963 0.494975
v 1.040280 0.206925 0.494975
v 1.014989 0.307893 0.494975
v 0.979922 0.405897 0.494975
v 0.935419 0.499992 0.494975
v 0.881907 0.589271 0.494975
v 0.819901 0.672876 0.494975
v 0.750000 0.750000 0.494975
v 0.672876 0.819901 0.494975
v 0.589271 0.881907 0.494975
v 0.499992 0.935419 0.494975
v 0.405897 0.979922 0.494975
v 0.307893 1.014989 0.494975
v 0.206925 1.040280 0.494975
v 0.103963 1.055553 0.494975
v 0.000000 1.060660 0.494975
v -0.103963 1.055553 0.494975
v -0.206925 1.040280 0.494975
v -0.307893 1.014989 0.494975
v -0.405897 0.979922 0.494975
v -0.499992 0.935419 0.494975
v -0.589271 0.881907 0.494975
v -0.672876 0.819901 0.494975
v -0.750000 0.750000 0.494975
v -0.819901 0.672876 0.494975
v -0.881907 0.589271 0.494975
v -0.935419 0.499992 0.494975
v -0.979922 0.405897 0.494975
v -1.014989 0.307893 0.494975
v -1.040280 0.206925 0.494975
v -1.055553 0.103963 0.494975
v -1.060660 0.000000 0.494975
v -1.055553 -0.103963 0.494975
v -1.040280 -0.206925 0.494975
v -1.014989 -0.307893 0.494975
v -0.979922 -0.405897 0.494975
v -0.935419 -0.499992 0.494975
v -0.881907 -0.589271 0.494975
v -0.819901 -0.672876 0.494975
v -0.750000 -0.750000 0.494975
v -0.672876 -0.819901 0.494975
v -0.589271 -0.881907 0.494975
v -0.499992 -0.935419 0.494975
v -0.405897 -0.979922 0.494975
v -0.307893 -1.014989 0.494975
v -0.206925 -1.040280 0.494975
v -0.103963 -1.055553 0.494975
v -0.000000 -1.060660 0.494975
v 0.103963 -1.055553 0.494975
v 0.206925 -1.040280 0.494975
v 0.307893 -1.014989 0.494975
v 0.405897 -0.979922 0.494975
v 0.499992 -0.935419 0.494975
v 0.589271 -0.881907 0.494975
v 0.672876 -0.819901 0.494975
v 0.750000 -0.750000 0.494975
v 0.819901 -0.672876 0.494975
v 0.881907 -0.589271 0.494975
v 0.935419 -0.499992 0.494975
v 0.979922 -0.405897 0.494975
v 1.014989 -0.307893 0.494975
v 1.040280 -0.206925 0.494975
v 1.055553 -0.103963 0.494975
v 1.190030 0.000000 0.426133
v 1.184300 0.116643 0.426133
v 1.167164 0.232163 0.426133
v 1.138788 0.345447 0.426133
v 1.099444 0.455405 0.426133
v 1.049513 0.560976 0.426133
v 0.989474 0.661145 0.426133
v 0.919906 0.754947 0.426133
v 0.841478 0.841478 0.426133
v 0.754947 0.919906 0.426133
v 0.661145 0.989474 0.426133
v 0.560976 1.049513 0.426133
v 0.455405 1.099444 0.426133
v 0.345447 1.138788 0.426133
v 0.232163 1.167164 0.426133
v 0.116643 1.184300 0.426133
v 0.000000 1.190030 0.426133
v -0.116643 1.184300 0.426133
v -0.232163 1.167164 0.426133
v -0.345447 1.138788 0.426133
v -0.455405 1.099444 0.426133
v -0.560976 1.049513 0.426133
v -0.661145 0.989474 0.426133
v -0.754947 0.919906 0.426133
v -0.841478 0.841478 0.426133
v -0.919906 0.754947 0.426133
v -0.989474 0.661145 0.426133
v -1.049513 0.560976 0.426133
v -1.099444 0.455405 0.426133
v -1.138788 0.345447 0.426133
v -1.167164 0.232163 0.426133
v -1.184300 0.116643 0.426133
v -1.190030 0.000000 0.426133
v -1.184300 -0.116643 0.426133
v -1.167164 -0.232163 0.426133
v -1.138788 -0.345447 0.426133
v -1.099444 -0.455405 0.426133
v -1.049513 -0.560976 0.426133
v -0.989474 -0.661145 0.426133
v -0.919906 -0.754947 0.426133
v -0.841478 -0.841478 0.426133
v -0.754947 -0.919906 0.426133
v -0.661145 -0.989474 0.426133
v -0.560976 -1.049513 0.426133
v -0.455405 -1.099444 0.426133
v -0.345447 -1.138788 0.426133
v -0.232163 -1.167164 0.426133
v -0.116643 -1.184300 0.426133
v -0.000000 -1.190030 0.426133
v 0.116643 -1.184300 0.426133
v 0.232163 -1.167164 0.426133
v 0.345447 -1.138788 0.426133
v 0.455405 -1.099444 0.426133
v 0.560976 -1.049513 0.426133
v 0.661145 -0.989474 0.426133
v 0.754947 -0.919906 0.426133
v 0.841478 -0.841478 0.426133
v 0.919906 -0.754947 0.426133
v 0.989474 -0.661145 0.426133
v 1.049513 -0.560976 0.426133
v 1.099444 -0.455405 0.426133
v 1.138788 -0.345447 0.426133
v 1.167164 -0.232163 0.426133
v 1.184300 -0.116643 0.426133
v 1.299038 0.000000 0.350000
v 1.292783 0.127328 0.350000
v 1.274077 0.253430 0.350000
v 1.243102 0.377091 0.350000
v 1.200155 0.497120 0.350000
v 1.145649 0.612362 0.350000
v 1.080111 0.721707 0.350000
v 1.004170 0.824101 0.350000
v 0.918559 0.918559 0.350000
v 0.824101 1.004170 0.350000
v 0.721707 1.080111 0.350000
v 0.612362 1.145649 0.350000
v 0.497120 1.200155 0.350000
v 0.377091 1.243102 0.350000
v 0.253430 1.274077 0.350000
v 0.127328 1.292783 0.350000
v 0.000000 1.299038 0.350000
v -0.127328 1.292783 0.350000
v -0.253430 1.274077 0.350000
v -0.377091 1.243102 0.350000
v -0.497120 1.200155 0.350000
v -0.612362 1.145649 0.350000
v -0.721707 1.080111 0.350000
v -0.824101 1.004170 0.350000
v -0.918559 0.918559 0.350000
v -1.004170 0.824101 0.350000
v -1.080111 0.721707 0.350000
v -1.145649 0.612362 0.350000
v -1.200155 0.497120 0.350000
v -1.243102 0.377091 0.350000
v -1.274077 0.253430 0.350000
v -1.292783 0.127328 0.350000
v -1.299038 0.000000 0.350000
v -1.292783 -0.127328 0.350000
v -1.274077 -0.253430 0.350000
v -1.243102 -0.377091 0.350000
v -1.200155 -0.497120 0.350000
v -1.145649 -0.612362 0.350000
v -1.080111 -0.721707 0.350000
v -1.004170 -0.824101 0.350000
v -0.918559 -0.918559 0.350000
v -0.824101 -1.004170 0.350000
v -0.721707 -1.080111 0.350000
v -0.612362 -1.145649 0.350000
v -0.497120 -1.200155 0.350000
v -0.377091 -1.243102 0.350000
v -0.253430 -1.274077 0.350000
v -0.127328 -1.292783 0.350000
v -0.000000 -1.299038 0.350000
v 0.127328 -1.292783 0.350000
v 0.253430 -1.274077 0.350000
v 0.377091 -1.243102 0.350000
v 0.497120 -1.200155 0.350000
v 0.612362 -1.145649 0.350000
v 0.721707 -1.080111 0.350000
v 0.824101 -1.004170 0.350000
v 0.918559 -0.918559 0.350000
v 1.004170 -0.824101 0.350000
v 1.080111 -0.721707 0.350000
v 1.145649 -0.612362 0.350000
v 1.200155 -0.497120 0.350000
v 1.243102 -0.377091 0.350000
v 1.274077 -0.253430 0.350000
v 1.292783 -0.127328 0.350000
v 1.385819 0.000000 0.267878
v 1.379146 0.135834 0.267878
v 1.359191 0.270360 0.267878
v 1.326146 0.402282 0.267878
v 1.280330 0.530330 0.267878
v 1.222184 0.653271 0.267878
v 1.152267 0.769920 0.267878
v 1.071253 0.879154 0.267878
v 0.979922 0.979922 0.267878
v 0.879154 1.071253 0.267878
v 0.769920 1.152267 0.267878
v 0.653271 1.222184 0.267878
v 0.530330 1.280330 0.267878
v 0.402282 1.326146 0.267878
v 0.270360 1.359191 0.267878
v 0.135834 1.379146 0.267878
v 0.000000 1.385819 0.267878
v -0.135834 1.379146 0.267878
v -0.270360 1.359191 0.267878
v -0.402282 1.326146 0.267878
v -0.530330 1.280330 0.267878
v -0.653271 1.222184 0.267878
v -0.769920 1.152267 0.267878
v -0.879154 1.071253 0.267878
v -0.979922 0.979922 0.267878
v -1.071253 0.879154 0.267878
v -1.152267 0.769920 0.267878
v -1.222184 0.653271 0.267878
v -1.280330 0.530330 0.267878
v -1.326146 0.402282 0.267878
v -1.359191 0.270360 0.267878
v -1.379146 0.135834 0.267878
v -1.385819 0.000000 0.267878
v -1.379146 -0.135834 0.267878
v -1.359191 -0.270360 0.267878
v -1.326146 -0.402282 0.267878
v -1.280330 -0.530330 0.267878
v -1.222184 -0.653271 0.267878
v -1.152267 -0.769920 0.267878
v -1.071253 -0.879154 0.267878
v -0.979922 -0.979922 0.267878
v -0.879154 -1.071253 0.267878
v -0.769920 -1.152267 0.267878
v -0.653271 -1.222184 0.267878
v -0.530330 -1.280330 0.267878
v -0.402282 -1.326146 0.267878
v -0.270360 -1.359191 0.267878
v -0.135834 -1.379146 0.267878
v -0.000000 -1.385819 0.267878
v 0.135834 -1.379146 0.267878
v 0.270360 -1.359191 0.267878
v 0.402282 -1.326146 0.267878
v 0.530330 -1.280330 0.267878
v 0.653271 -1.222184 0.267878
v 0.769920 -1.152267 0.267878
v 0.879154 -1.071253 0.267878
v 0.979922 -0.979922 0.267878
v 1.071253 -0.879154 0.267878
v 1.152267 -0.769920 0.267878
v 1.222184 -0.653271 0.267878
v 1.280330 -0.530330 0.267878
v 1.326146 -0.402282 0.267878
v 1.359191 -0.270360 0.267878
v 1.379146 -0.135834 0.267878
v 1.448889 0.000000 0.181173
v 1.441912 0.142016 0.181173
v 1.421049 0.282664 0.181173
v 1.386500 0.420590 0.181173
v 1.338599 0.554466 0.181173
v 1.277806 0.683001 0.181173
v 1.204707 0.804959 0.181173
v 1.120006 0.919165 0.181173
v 1.024519 1.024519 0.181173
v 0.919165 1.120006 0.181173
v 0.804959 1.204707 0.181173
v 0.683001 1.277806 0.181173
v 0.554466 1.338599 0.181173
v 0.420590 1.386500 0.181173
v 0.282664 1.421049 0.181173
v 0.142016 1.441912 0.181173
v 0.000000 1.448889 0.181173
v -0.142016 1.441912 0.181173
v -0.282664 1.421049 0.181173
v -0.420590 1.386500 0.181173
v -0.554466 1.338599 0.181173
v -0.683001 1.277806 0.181173
v -0.804959 1.204707 0.181173
v -0.919165 1.120006 0.181173
v -1.024519 1.024519 0.181173
v -1.120006 0.919165 0.181173
v -1.204707 0.804959 0.181173
v -1.277806 0.683001 0.181173
v -1.338599 0.554466 0.181173
v -1.386500 0.420590 0.181173
v -1.421049 0.282664 0.181173
v -1.441912 0.142016 0.181173
v -1.448889 0.000000 0.181173
v -1.441912 -0.142016 0.181173
v -1.421049 -0.282664 0.181173
v -1.386500 -0.420590 0.181173
v -1.338599 -0.554466 0.181173
v -1.277806 -0.683001 0.181173
v -1.204707 -0.804959 0.181173
v -1.120006 -0.919165 0.181173
v -1.024519 -1.024519 0.181173
v -0.919165 -1.120006 0.181173
v -0.804959 -1.204707 0.181173
v -0.683001 -1.277806 0.181173
v -0.554466 -1.338599 0.181173
v -0.420590 -1.386500 0.181173
v -0.282664 -1.421049 0.181173
v -0.142016 -1.441912 0.181173
v -0.000000 -1.448889 0.181173
v 0.142016 -1.441912 0.181173
v 0.282664 -1.421049 0.181173
v 0.420590 -1.386500 0.181173
v 0.554466 -1.338599 0.181173
v 0.683001 -1.277806 0.181173
v 0.804959 -1.204707 0.181173
v 0.919165 -1.120006 0.181173
v 1.024519 -1.024519 0.181173
v 1.120006 -0.919165 0.181173
v 1.204707 -0.804959 0.181173
v 1.277806 -0.683001 0.181173
v 1.338599 -0.554466 0.181173
v 1.386500 -0.420590 0.181173
v 1.421049 -0.282664 0.181173
v 1.441912 -0.142016 0.181173
v 1.487167 0.000000 0.091368
v 1.480006 0.145768 0.091368
v 1.458592 0.290132 0.091368
v 1.423130 0.431702 0.091368
v 1.373963 0.569114 0.091368
v 1.311564 0.701046 0.091368
v 1.236534 0.826226 0.091368
v 1.149596 0.943449 0.091368
v 1.051586 1.051586 0.091368
v 0.943449 1.149596 0.091368
v 0.826226 1.236534 0.091368
v 0.701046 1.311564 0.091368
v 0.569114 1.373963 0.091368
v 0.431702 1.423130 0.091368
v 0.290132 1.458592 0.091368
v 0.145768 1.480006 0.091368
v 0.000000 1.487167 0.091368
v -0.145768 1.480006 0.091368
v -0.290132 1.458592 0.091368
v -0.431702 1.423130 0.091368
v -0.569114 1.373963 0.091368
v -0.701046 1.311564 0.091368
v -0.826226 1.236534 0.091368
v -0.943449 1.149596 0.091368
v -1.051586 1.051586 0.091368
v -1.149596 0.943449 0.091368
v -1.236534 0.826226 0.091368
v -1.311564 0.701046 0.091368
v -1.373963 0.569114 0.091368
v -1.423130 0.431702 0.091368
v -1.458592 0.290132 0.091368
v -1.480006 0.145768 0.091368
v -1.487167 0.000000 0.091368
v -1.480006 -0.145768 0.091368
v -1.458592 -0.290132 0.091368
v -1.423130 -0.431702 0.091368
v -1.373963 -0.569114 0.091368
v -1.311564 -0.701046 0.091368
v -1.236534 -0.826226 0.091368
v -1.149596 -0.943449 0.091368
v -1.051586 -1.051586 0.091368
v -0.943449 -1.149596 0.091368
v -0.826226 -1.236534 0.091368
v -0.701046 -1.311564 0.091368
v -0.569114 -1.373963 0.091368
v -0.431702 -1.423130 0.091368
v -0.290132 -1.458592 0.091368
v -0.145768 -1.480006 0.091368
v -0.000000 -1.487167 0.091368
v 0.145768 -1.480006 0.091368
v 0.290132 -1.458592 0.091368
v 0.431702 -1.423130 0.091368
v 0.569114 -1.373963 0.091368
v 0.701046 -1.311564 0.091368
v 0.826226 -1.236534 0.091368
v 0.943449 -1.149596 0.091368
v 1.051586 -1.051586 0.091368
v 1.149596 -0.943449 0.091368
v 1.236534 -0.826226 0.091368
v 1.311564 -0.701046 0.091368
v 1.373963 -0.569114 0.091368
v 1.423130 -0.431702 0.091368
v 1.458592 -0.290132 0.091368
v 1.480006 -0.145768 0.091368
v 1.500000 0.000000 0.000000
v 1.492777 0.147026 0.000000
v 1.471178 0.292635 0.000000
v 1.435411 0.435427 0.000000
v 1.385819 0.574025 0.000000
v 1.322882 0.707095 0.000000
v 1.247204 0.833355 0.000000
v 1.159516 0.951590 0.000000
v 1.060660 1.060660 0.000000
v 0.951590 1.159516 0.000000
v 0.833355 1.247204 0.000000
v 0.707095 1.322882 0.000000
v 0.574025 1.385819 0.000000
v 0.435427 1.435411 0.000000
v 0.292635 1.471178 0.000000
v 0.147026 1.492777 0.000000
v 0.000000 1.500000 0.000000
v -0.147026 1.492777 0.000000
v -0.292635 1.471178 0.000000
v -0.435427 1.435411 0.000000
v -0.574025 1.385819 0.000000
v -0.707095 1.322882 0.000000
v -0.833355 1.247204 0.000000
v -0.951590 1.159516 0.000000
v -1.060660 1.060660 0.000000
v -1.159516 0.951590 0.000000
v -1.247204 0.833355 0.000000
v -1.322882 0.707095 0.000000
v -1.385819 0.574025 0.000000
v -1.435411 0.435427 0.000000
v -1.471178 0.292635 0.000000
v -1.492777 0.147026 0.000000
v -1.500000 0.000000 0.000000
v -1.492777 -0.147026 0.000000
v -1.471178 -0.292635 0.000000
v -1.435411 -0.435427 0.000000
v -1.385819 -0.574025 0.000000
v -1.322882 -0.707095 0.000000
v -1.247204 -0.833355 0.000000
v -1.159516 -0.951590 0.000000
v -1.060660 -1.060660 0.000000
v -0.951590 -1.159516 0.000000
v -0.833355 -1.247204 0.000000
v -0.707095 -1.322882 0.000000
v -0.574025 -1.385819 0.000000
v -0.435427 -1.435411 0.000000
v -0.292635 -1.471178 0.000000
v -0.147026 -1.492777 0.000000
v -0.000000 -1.500000 0.000000
v 0.147026 -1.492777 0.000000
v 0.292635 -1.471178 0.000000
v 0.435427 -1.435411 0.000000
v 0.574025 -1.385819 0.000000
v 0.707095 -1.322882 0.000000
v 0.833355 -1.247204 0.000000
v 0.951590 -1.159516 0.000000
v 1.060660 -1.060660 0.000000
v 1.159516 -0.951590 0.000000
v 1.247204 -0.833355 0.000000
v 1.322882 -0.707095 0.000000
v 1.385819 -0.574025 0.000000
v 1.435411 -0.435427 0.000000
v 1.471178 -0.292635 0.000000
v 1.492777 -0.147026 0.000000
f 1 2 3
f 1 3 4
f 1 4 5
f 1 5 6
f 1 6 7
f 1 7 8
f 1 8 9
f 1 9 10
f 1 10 11
f 1 11 12
f 1 12 13
f 1 13 14
f 1 14 15
f 1 15 16
f 1 16 17
f 1 17 18
f 1 18 19
f 1 19 20
f 1 20 21
f 1 21 22
f 1 22 23
f 1 23 24
f 1 24 25
f 1 25 26
f 1 26 27
f 1 27 28
f 1 28 29
f 1 29 30
f 1 30 31
f 1 31 32
f 1 32 33
f 1 33 34
f 1 34 35
f 1 35 36
f 1 36 37
f 1 37 38
f 1 38 39
f 1 39 40
f 1 40 41
f 1 41 42
f 1 42 43
f 1 43 44
f 1 44 45
f 1 45 46
f 1 46 47
f 1 47 48
f 1 48 49
f 1 49 50
f 1 50 51
f 1 51 52
f 1 52 53
f 1 53 54
f 1 54 55
f 1 55 56
f 1 56 57
f 1 57 58
f 1 58 59
f 1 59 60
f 1 60 61
f 1 61 62
f 1 62 63
f 1 63 64
f 1 64 65
f 1 65 2
f 2 66 67
f 2 67 3
f 3 67 68
f 3 68 4
f 4 68 69
f 4 69 5
f 5 69 70
f 5 70 6
f 6 70 71
f 6 71 7
f 7 71 72
f 7 72 8
f 8 72 73
f 8 73 9
f 9 73 74
f 9 74 10
f 10 74 75
f 10 75 11
f 11 75 76
f 11 76 12
f 12 76 77
f 12 77 13
f 13 77 78
f 13 78 14
f 14 78 79
f 14 79 15
f 15 79 80
f 15 80 16
f 16 80 81
f 16 81 17
f 17 81 82
f 17 82 18
f 18 82 83
f 18 83 19
f 19 83 84
f 19 84 20
f 20 84 85
f 20 85 21
f 21 85 86
f 21 86 22
f 22 86 87
f 22 87 23
f 23 87 88
f 23 88 24
f 24 88 89
f 24 89 25
f 25 89 90
f 25 90 26
f 26 90 91
f 26 91 27
f 27 91 92
f 27 92 28
f 28 92 93
f 28 93 29
f 29 93 94
f 29 94 30
f 30 94 95
f 30 95 31
f 31 95 96
f 31 96 32
f 32 96 97
f 32 97 33
f 33 97 98
f 33 98 34
f 34 98 99
f 34 99 35
f 35 99 100
f 35 100 36
f 36 100 101
f 36 101 37
f 37 101 102
f 37 102 38
f 38 102 103
f 38 103 39
f 39 103 104
f 39 104 40
f 40 104 105
f 40 105 41
f 41 105 106
f 41 106 42
f 42 106 107
f 42 107 43
f 43 107 108
f 43 108 44
f 44 108 109
f 44 109 45
f 45 109 110
f 45 110 46
f 46 110 111
f 46 111 47
f 47 111 112
f 47 112 48
f 48 112 113
f 48 113 49
f 49 113 114
f 49 114 50
f 50 114 115
f 50 115 51
f 51 115 116
f 51 116 52
f 52 116 117
f 52 117 53
f 53 117 118
f 53 118 54
f 54 118 119
f 54 119 55
f 55 119 120
f 55 120 56
f 56 120 121
f 56 121 57
f 57 121 122
f 57 122 58
f 58 122 123
f 58 123 59
f 59 123 124
f 59 124 60
f 60 124 125
f 60 125 61
f 61 125 126
f 61 126 62
f 62 126 127
f 62 127 63
f 63 127 128
f 63 128 64
f 64 128 129
f 64 129 65
f 65 129 66
f 65 66 2
f 66 130 131
f 66 131 67
f 67 131 132
f 67 132 68
f 68 132 133
f 68 133 69
f 69 133 134
f 69 134 70
f 70 134 135
f 70 135 71
f 71 135 136
f 71 136 72
f 72 136 137
f 72 137 73
f 73 137 138
f 73 138 74
f 74 138 139
f 74 139 75
f 75 139 140
f 75 140 76
f 76 140 141
f 76 141 77
f 77 141 142
f 77 142 78
f 78 142 143
f 78 143 79
f 79 143 144
f 79 144 80
f 80 144 145
f 80 145 81
f 81 145 146
f 81 146 82
f 82 146 147
f 82 147 83
f 83 147 148
f 83 148 84
f 84 148 149
f 84 149 85
f 85 149 150
f 85 150 86
f 86 150 151
f 86 151 87
f 87 151 152
f 87 152 88
f 88 152 153
f 88 153 89
f 89 153 154
f 89 154 90
f 90 154 155
f 90 155 91
f 91 155 156
f 91 156 92
f 92 156 157
f 92 157 93
f 93 157 158
f 93 158 94
f 94 158 159
f 94 159 95
f 95 159 160
f 95 160 96
f 96 160 161
f 96 161 97
f 97 161 162
f 97 162 98
f 98 162 163
f 98 163 99
f 99 163 164
f 99 164 100
f 100 164 165
f 100 165 101
f 101 165 166
f 101 166 102
f 102 166 167
f 102 167 103
f 103 167 168
f 103 168 104
f 104 168 169
f 104 169 105
f 105 169 170
f 105 170 106
f 106 170 171
f 106 171 107
f 107 171 172
f 107 172 108
f 108 172 173
f 108 173 109
f 109 173 174
f 109 174 110
f 110 174 175
f 110 175 111
f 111 175 176
f 111 176 112
f 112 176 177
f 112 177 113
f 113 177 178
f 113 178 114
f 114 178 179
f 114 179 115
f 115 179 180
f 115 180 116
f 116 180 181
f 116 181 117
f 117 181 182
f 117 182 118
f 118 182 183
f 118 183 119
f 119 183 184
f 119 184 120
f 120 184 185
f 120 185 121
f 121 185 186
f 121 186 122
f 122 186 187
f 122 187 123
f 123 187 188
f 123 188 124
f 124 188 189
f 124 189 125
f 125 189 190
f 125 190 126
f 126 190 191
f 126 191 127
f 127 191 192
f 127 192 128
f 128 192 193
f 128 193 129
f 129 193 130
f 129 130 66
f 130 194 195
f 130 195 131
f 131 195 196
f 131 196 132
f 132 196 197
f 132 197 133
f 133 197 198
f 133 198 134
f 134 198 199
f 134 199 135
f 135 199 200
f 135 200 136
f 136 200 201
f 136 201 137
f 137 201 202
f 137 202 138
f 138 202 203
f 138 203 139
f 139 203 204
f 139 204 140
f 140 204 205
f 140 205 141
f 141 205 206
f 141 206 142
f 142 206 207
f 142 207 143
f 143 207 208
f 143 208 144
f 144 208 209
f 144 209 145
f 145 209 210
f 145 210 146
f 146 210 211
f 146 211 147
f 147 211 212
f 147 212 148
f 148 212 213
f 148 213 149
f 149 213 214
f 149 214 150
f 150 214 215
f 150 215 151
f 151 215 216
f 151 216 152
f 152 216 217
f 152 217 153
f 153 217 218
f 153 218 154
f 154 218 219
f 154 219 155
f 155 219 220
f 155 220 156
f 156 220 221
f 156 221 157
f 157 221 222
f 157 222 158
f 158 222 223
f 158 223 159
f 159 223 224
f 159 224 160
f 160 224 225
f 160 225 161
f 161 225 226
f 161 226 162
f 162 226 227
f 162 227 163
f 163 227 228
f 163 228 164
f 164 228 229
f 164 229 165
f 165 229 230
f 165 230 166
f 166 230 231
f 166 231 167
f 167 231 232
f 167 232 168
f 168 232 233
f 168 233 169
f 169 233 234
f 169 234 170
f 170 234 235
f 170 235 171
f 171 235 236
f 171 236 172
f 172 236 237
f 172 237 173
f 173 237 238
f 173 238 174
f 174 238 239
f 174 239 175
f 175 239 240
f 175 240 176
f 176 240 241
f 176 241 177
f 177 241 242
f 177 242 178
f 178 242 243
f 178 243 179
f 179 243 244
f 179 244 180
f 180 244 245
f 180 245 181
f 181 245 246
f 181 246 182
f 182 246 247
f 182 247 183
f 183 247 248
f 183 248 184
f 184 248 249
f 184 249 185
f 185 249 250
f 185 250 186
f 186 250 251
f 186 251 187
f 187 251 252
f 187 252 188
f 188 252 253
f 188 253 189
f 189 253 254
f 189 254 190
f 190 254 255
f 190 255 191
f 191 255 256
f 191 256 192
f 192 256 257
f 192 257 193
f 193 257 194
f 193 194 130
f 194 258 259
f 194 259 195
f 195 259 260
f 195 260 196
f 196 260 261
f 196 261 197
f 197 261 262
f 197 262 198
f 198 262 263
f 198 263 199
f 199 263 264
f 199 264 200
f 200 264 265
f 200 265 201
f 201 265 266
f 201 266 202
f 202 266 267
f 202 267 203
f 203 267 268
f 203 268 204
f 204 268 269
f 204 269 205
f 205 269 270
f 205 270 206
f 206 270 271
f 206 271 207
f 207 271 272
f 207 272 208
f 208 272 273
f 208 273 209
f 209 273 274
f 209 274 210
f 210 274 275
f 210 275 211
f 211 275 276
f 211 276 212
f 212 276 277
f 212 277 213
f 213 277 278
f 213 278 214
f 214 278 279
f 214 279 215
f 215 279 280
f 215 280 216
f 216 280 281
f 216 281 217
f 217 281 282
f 217 282 218
f 218 282 283
f 218 283 219
f 219 283 284
f 219 284 220
f 220 284 285
f 220 285 221
f 221 285 286
f 221 286 222
f 222 286 287
f 222 287 223
f 223 287 288
f 223 288 224
f 224 288 289
f 224 289 225
f 225 289 290
f 225 290 226
f 226 290 291
f 226 291 227
f 227 291 292
f 227 292 228
f 228 292 293
f 228 293 229
f 229 293 294
f 229 294 230
f 230 294 295
f 230 295 231
f 231 295 296
f 231 296 232
f 232 296 297
f 232 297 233
f 233 297 298
f 233 298 234
f 234 298 299
f 234 299 235
f 235 299 300
f 235 300 236
f 236 300 301
f 236 301 237
f 237 301 302
f 237 302 238
f 238 302 303
f 238 303 239
f 239 303 304
f 239 304 240
f 240 304 305
f 240 305 241
f 241 305 306
f 241 306 242
f 242 306 307
f 242 307 243
f 243 307 308
f 243 308 244
f 244 308 309
f 244 309 245
f 245 309 310
f 245 310 246
f 246 310 311
f 246 311 247
f 247 311 312
f 247 312 248
f 248 312 313
f 248 313 249
f 249 313 314
f 249 314 250
f 250 314 315
f 250 315 251
f 251 315 316
f 251 316 252
f 252 316 317
f 252 317 253
f 253 317 318
f 253 318 254
f 254 318 319
f 254 319 255
f 255 319 320
f 255 320 256
f 256 320 321
f 256 321 257
f 257 321 258
f 257 258 194
f 258 322 323
f 258 323 259
f 259 323 324
f 259 324 260
f 260 324 325
f 260 325 261
f 261 325 326
f 261 326 262
f 262 326 327
f 262 327 263
f 263 327 328
f 263 328 264
f 264 328 329
f 264 329 265
f 265 329 330
f 265 330 266
f 266 330 331
f 266 331 267
f 267 331 332
f 267 332 268
f 268 332 333
f 268 333 269
f 269 333 334
f 269 334 270
f 270 334 335
f 270 335 271
f 271 335 336
f 271 336 272
f 272 336 337
f 272 337 273
f 273 337 338
f 273 338 274
f 274 338 339
f 274 339 275
f 275 339 340
f 275 340 276
f 276 340 341
f 276 341 277
f 277 341 342
f 277 342 278
f 278 342 343
f 278 343 279
f 279 343 344
f 279 344 280
f 280 344 345
f 280 345 281
f 281 345 346
f 281 346 282
f 282 346 347
f 282 347 283
f 283 347 348
f 283 348 284
f 284 348 349
f 284 349 285
f 285 349 350
f 285 350 286
f 286 350 351
f 286 351 287
f 287 351 352
f 287 352 288
f 288 352 353
f 288 353 289
f 289 353 354
f 289 354 290
f 290 354 355
f 290 355 291
f 291 355 356
f 291 356 292
f 292 356 357
f 292 357 293
f 293 357 358
f 293 358 294
f 294 358 359
f 294 359 295
f 295 359 360
f 295 360 296
f 296 360 361
f 296 361 297
f 297 361 362
f 297 362 298
f 298 362 363
f 298 363 299
f 299 363 364
f 299 364 300
f 300 364 365
f 300 365 301
f 301 365 366
f 301 366 302
f 302 366 367
f 302 367 303
f 303 367 368
f 303 368 304
f 304 368 369
f 304 369 305
f 305 369 370
f 305 370 306
f 306 370 371
f 306 371 307
f 307 371 372
f 307 372 308
f 308 372 373
f 308 373 309
f 309 373 374
f 309 374 310
f 310 374 375
f 310 375 311
f 311 375 376
f 311 376 312
f 312 376 377
f 312 377 313
f 313 377 378
f 313 378 314
f 314 378 379
f 314 379 315
f 315 379 380
f 315 380 316
f 316 380 381
f 316 381 317
f 317 381 382
f 317 382 318
f 318 382 383
f 318 383 319
f 319 383 384
f 319 384 320
f 320 384 385
f 320 385 321
f 321 385 322
f 321 322 258
f 322 386 387
f 322 387 323
f 323 387 388
f 323 388 324
f 324 388 389
f 324 389 325
f 325 389 390
f 325 390 326
f 326 390 391
f 326 391 327
f 327 391 392
f 327 392 328
f 328 392 393
f 328 393 329
f 329 393 394
f 329 394 330
f 330 394 395
f 330 395 331
f 331 395 396
f 331 396 332
f 332 396 397
f 332 397 333
f 333 397 398
f 333 398 334
f 334 398 399
f 334 399 335
f 335 399 400
f 335 400 336
f 336 400 401
f 336 401 337
f 337 401 402
f 337 402 338
f 338 402 403
f 338 403 339
f 339 403 404
f 339 404 340
f 340 404 405
f 340 405 341
f 341 405 406
f 341 406 342
f 342 406 407
f 342 407 343
f 343 407 408
f 343 408 344
f 344 408 409
f 344 409 345
f 345 409 410
f 345 410 346
f 346 410 411
f 346 411 347
f 347 411 412
f 347 412 348
f 348 412 413
f 348 413 349
f 349 413 414
f 349 414 350
f 350 414 415
f 350 415 351
f 351 415 416
f 351 416 352
f 352 416 417
f 352 417 353
f 353 417 418
f 353 418 354
f 354 418 419
f 354 419 355
f 355 419 420
f 355 420 356
f 356 420 421
f 356 421 357
f 357 421 422
f 357 422 358
f 358 422 423
f 358 423 359
f 359 423 424
f 359 424 360
f 360 424 425
f 360 425 361
f 361 425 426
f 361 426 362
f 362 426 427
f 362 427 363
f 363 427 428
f 363 428 364
f 364 428 429
f 364 429 365
f 365 429 430
f 365 430 366
f 366 430 431
f 366 431 367
f 367 431 432
f 367 432 368
f 368 432 433
f 368 433 369
f 369 433 434
f 369 434 370
f 370 434 435
f 370 435 371
f 371 435 436
f 371 436 372
f 372 436 437
f 372 437 373
f 373 437 438
f 373 438 374
f 374 438 439
f 374 439 375
f 375 439 440
f 375 440 376
f 376 440 441
f 376 441 377
f 377 441 442
f 377 442 378
f 378 442 443
f 378 443 379
f 379 443 444
f 379 444 380
f 380 444 445
f 380 445 381
f 381 445 446
f 381 446 382
f 382 446 447
f 382 447 383
f 383 447 448
f 383 448 384
f 384 448 449
f 384 449 385
f 385 449 386
f 385 386 322
f 386 450 451
f 386 451 387
f 387 451 452
f 387 452 388
f 388 452 453
f 388 453 389
f 389 453 454
f 389 454 390
f 390 454 455
f 390 455 391
f 391 455 456
f 391 456 392
f 392 456 457
f 392 457 393
f 393 457 458
f 393 458 394
f 394 458 459
f 394 459 395
f 395 459 460
f 395 460 396
f 396 460 461
f 396 461 397
f 397 461 462
f 397 462 398
f 398 462 463
f 398 463 399
f 399 463 464
f 399 464 400
f 400 464 465
f 400 465 401
f 401 465 466
f 401 466 402
f 402 466 467
f 402 467 403
f 403 467 468
f 403 468 404
f 404 468 469
f 404 469 405
f 405 469 470
f 405 470 406
f 406 470 471
f 406 471 407
f 407 471 472
f 407 472 408
f 408 472 473
f 408 473 409
f 409 473 474
f 409 474 410
f 410 474 475
f 410 475 411
f 411 475 476
f 411 476 412
f 412 476 477
f 412 477 413
f 413 477 478
f 413 478 414
f 414 478 479
f 414 479 415
f 415 479 480
f 415 480 416
f 416 480 481
f 416 481 417
f 417 481 482
f 417 482 418
f 418 482 483
f 418 483 419
f 419 483 484
f 419 484 420
f 420 484 485
f 420 485 421
f 421 485 486
f 421 486 422
f 422 486 487
f 422 487 423
f 423 487 488
f 423 488 424
f 424 488 489
f 424 489 425
f 425 489 490
f 425 490 426
f 426 490 491
f 426 491 427
f 427 491 492
f 427 492 428
f 428 492 493
f 428 493 429
f 429 493 494
f 429 494 430
f 430 494 495
f 430 495 431
f 431 495 496
f 431 496 432
f 432 496 497
f 432 497 433
f 433 497 498
f 433 498 434
f 434 498 499
f 434 499 435
f 435 499 500
f 435 500 436
f 436 500 501
f 436 501 437
f 437 501 502
f 437 502 438
f 438 502 503
f 438 503 439
f 439 503 504
f 439 504 440
f 440 504 505
f 440 505 441
f 441 505 506
f 441 506 442
f 442 506 507
f 442 507 443
f 443 507 508
f 443 508 444
f 444 508 509
f 444 509 445
f 445 509 510
f 445 510 446
f 446 510 511
f 446 511 447
f 447 511 512
f 447 512 448
f 448 512 513
f 448 513 449
f 449 513 450
f 449 450 386
f 450 514 515
f 450 515 451
f 451 515 516
f 451 516 452
f 452 516 517
f 452 517 453
f 453 517 518
f 453 518 454
f 454 518 519
f 454 519 455
f 455 519 520
f 455 520 456
f 456 520 521
f 456 521 457
f 457 521 522
f 457 522 458
f 458 522 523
f 458 523 459
f 459 523 524
f 459 524 460
f 460 524 525
f 460 525 461
f 461 525 526
f 461 526 462
f 462 526 527
f 462 527 463
f 463 527 528
f 463 528 464
f 464 528 529
f 464 529 465
f 465 529 530
f 465 530 466
f 466 530 531
f 466 531 467
f 467 531 532
f 467 532 468
f 468 532 533
f 468 533 469
f 469 533 534
f 469 534 470
f 470 534 535
f 470 535 471
f 471 535 536
f 471 536 472
f 472 536 537
f 472 537 473
f 473 537 538
f 473 538 474
f 474 538 539
f 474 539 475
f 475 539 540
f 475 540 476
f 476 540 541
f 476 541 477
f 477 541 542
f 477 542 478
f 478 542 543
f 478 543 479
f 479 543 544
f 479 544 480
f 480 544 545
f 480 545 481
f 481 545 546
f 481 546 482
f 482 546 547
f 482 547 483
f 483 547 548
f 483 548 484
f 484 548 549
f 484 549 485
f 485 549 550
f 485 550 486
f 486 550 551
f 486 551 487
f 487 551 552
f 487 552 488
f 488 552 553
f 488 553 489
f 489 553 554
f 489 554 490
f 490 554 555
f 490 555 491
f 491 555 556
f 491 556 492
f 492 556 557
f 492 557 493
f 493 557 558
f 493 558 494
f 494 558 559
f 494 559 495
f 495 559 560
f 495 560 496
f 496 560 561
f 496 561 497
f 497 561 562
f 497 562 498
f 498 562 563
f 498 563 499
f 499 563 564
f 499 564 500
f 500 564 565
f 500 565 501
f 501 565 566
f 501 566 502
f 502 566 567
f 502 567 503
f 503 567 568
f 503 568 504
f 504 568 569
f 504 569 505
f 505 569 570
f 505 570 506
f 506 570 571
f 506 571 507
f 507 571 572
f 507 572 508
f 508 572 573
f 508 573 509
f 509 573 574
f 509 574 510
f 510 574 575
f 510 575 511
f 511 575 576
f 511 576 512
f 512 576 577
f 512 577 513
f 513 577 514
f 513 514 450
f 514 578 579
f 514 579 515
f 515 579 580
f 515 580 516
f 516 580 581
f 516 581 517
f 517 581 582
f 517 582 518
f 518 582 583
f 518 583 519
f 519 583 584
f 519 584 520
f 520 584 585
f 520 585 521
f 521 585 586
f 521 586 522
f 522 586 587
f 522 587 523
f 523 587 588
f 523 588 524
f 524 588 589
f 524 589 525
f 525 589 590
f 525 590 526
f 526 590 591
f 526 591 527
f 527 591 592
f 527 592 528
f 528 592 593
f 528 593 529
f 529 593 594
f 529 594 530
f 530 594 595
f 530 595 531
f 531 595 596
f 531 596 532
f 532 596 597
f 532 597 533
f 533 597 598
f 533 598 534
f 534 598 599
f 534 599 535
f 535 599 600
f 535 600 536
f 536 600 601
f 536 601 537
f 537 601 602
f 537 602 538
f 538 602 603
f 538 603 539
f 539 603 604
f 539 604 540
f 540 604 605
f 540 605 541
f 541 605 606
f 541 606 542
f 542 606 607
f 542 607 543
f 543 607 608
f 543 608 544
f 544 608 609
f 544 609 545
f 545 609 610
f 545 610 546
f 546 610 611
f 546 611 547
f 547 611 612
f 547 612 548
f 548 612 613
f 548 613 549
f 549 613 614
f 549 614 550
f 550 614 615
f 550 615 551
f 551 615 616
f 551 616 552
f 552 616 617
f 552 617 553
f 553 617 618
f 553 618 554
f 554 618 619
f 554 619 555
f 555 619 620
f 555 620 556
f 556 620 621
f 556 621 557
f 557 621 622
f 557 622 558
f 558 622 623
f 558 623 559
f 559 623 624
f 559 624 560
f 560 624 625
f 560 625 561
f 561 625 626
f 561 626 562
f 562 626 627
f 562 627 563
f 563 627 628
f 563 628 564
f 564 628 629
f 564 629 565
f 565 629 630
f 565 630 566
f 566 630 631
f 566 631 567
f 567 631 632
f 567 632 568
f 568 632 633
f 568 633 569
f 569 633 634
f 569 634 570
f 570 634 635
f 570 635 571
f 571 635 636
f 571 636 572
f 572 636 637
f 572 637 573
f 573 637 638
f 573 638 574
f 574 638 639
f 574 639 575
f 575 639 640
f 575 640 576
f 576 640 641
f 576 641 577
f 577 641 578
f 577 578 514
f 578 642 643
f 578 643 579
f 579 643 644
f 579 644 580
f 580 644 645
f 580 645 581
f 581 645 646
f 581 646 582
f 582 646 647
f 582 647 583
f 583 647 648
f 583 648 584
f 584 648 649
f 584 649 585
f 585 649 650
f 585 650 586
f 586 650 651
f 586 651 587
f 587 651 652
f 587 652 588
f 588 652 653
f 588 653 589
f 589 653 654
f 589 654 590
f 590 654 655
f 590 655 591
f 591 655 656
f 591 656 592
f 592 656 657
f 592 657 593
f 593 657 658
f 593 658 594
f 594 658 659
f 594 659 595
f 595 659 660
f 595 660 596
f 596 660 661
f 596 661 597
f 597 661 662
f 597 662 598
f 598 662 663
f 598 663 599
f 599 663 664
f 599 664 600
f 600 664 665
f 600 665 601
f 601 665 666
f 601 666 602
f 602 666 667
f 602 667 603
f 603 667 668
f 603 668 604
f 604 668 669
f 604 669 605
f 605 669 670
f 605 670 606
f 606 670 671
f 606 671 607
f 607 671 672
f 607 672 608
f 608 672 673
f 608 673 609
f 609 673 674
f 609 674 610
f 610 674 675
f 610 675 611
f 611 675 676
f 611 676 612
f 612 676 677
f 612 677 613
f 613 677 678
f 613 678 614
f 614 678 679
f 614 679 615
f 615 679 680
f 615 680 616
f 616 680 681
f 616 681 617
f 617 681 682
f 617 682 618
f 618 682 683
f 618 683 619
f 619 683 684
f 619 684 620
f 620 684 685
f 620 685 621
f 621 685 686
f 621 686 622
f 622 686 687
f 622 687 623
f 623 687 688
f 623 688 624
f 624 688 689
f 624 689 625
f 625 689 690
f 625 690 626
f 626 690 691
f 626 691 627
f 627 691 692
f 627 692 628
f 628 692 693
f 628 693 629
f 629 693 694
f 629 694 630
f 630 694 695
f 630 695 631
f 631 695 696
f 631 696 632
f 632 696 697
f 632 697 633
f 633 697 698
f 633 698 634
f 634 698 699
f 634 699 635
f 635 699 700
f 635 700 636
f 636 700 701
f 636 701 637
f 637 701 702
f 637 702 638
f 638 702 703
f 638 703 639
f 639 703 704
f 639 704 640
f 640 704 705
f 640 705 641
f 641 705 642
f 641 642 578
f 642 706 707
f 642 707 643
f 643 707 708
f 643 708 644
f 644 708 709
f 644 709 645
f 645 709 710
f 645 710 646
f 646 710 711
f 646 711 647
f 647 711 712
f 647 712 648
f 648 712 713
f 648 713 649
f 649 713 714
f 649 714 650
f 650 714 715
f 650 715 651
f 651 715 716
f 651 716 652
f 652 716 717
f 652 717 653
f 653 717 718
f 653 718 654
f 654 718 719
f 654 719 655
f 655 719 720
f 655 720 656
f 656 720 721
f 656 721 657
f 657 721 722
f 657 722 658
f 658 722 723
f 658 723 659
f 659 723 724
f 659 724 660
f 660 724 725
f 660 725 661
f 661 725 726
f 661 726 662
f 662 726 727
f 662 727 663
f 663 727 728
f 663 728 664
f 664 728 729
f 664 729 665
f 665 729 730
f 665 730 666
f 666 730 731
f 666 731 667
f 667 731 732
f 667 732 668
f 668 732 733
f 668 733 669
f 669 733 734
f 669 734 670
f 670 734 735
f 670 735 671
f 671 735 736
f 671 736 672
f 672 736 737
f 672 737 673
f 673 737 738
f 673 738 674
f 674 738 739
f 674 739 675
f 675 739 740
f 675 740 676
f 676 740 741
f 676 741 677
f 677 741 742
f 677 742 678
f 678 742 743
f 678 743 679
f 679 743 744
f 679 744 680
f 680 744 745
f 680 745 681
f 681 745 746
f 681 746 682
f 682 746 747
f 682 747 683
f 683 747 748
f 683 748 684
f 684 748 749
f 684 749 685
f 685 749 750
f 685 750 686
f 686 750 751
f 686 751 687
f 687 751 752
f 687 752 688
f 688 752 753
f 688 753 689
f 689 753 754
f 689 754 690
f 690 754 755
f 690 755 691
f 691 755 756
f 691 756 692
f 692 756 757
f 692 757 693
f 693 757 758
f 693 758 694
f 694 758 759
f 694 759 695
f 695 759 760
f 695 760 696
f 696 760 761
f 696 761 697
f 697 761 762
f 697 762 698
f 698 762 763
f 698 763 699
f 699 763 764
f 699 764 700
f 700 764 765
f 700 765 701
f 701 765 766
f 701 766 702
f 702 766 767
f 702 767 703
f 703 767 768
f 703 768 704
f 704 768 769
f 704 769 705
f 705 769 706
f 705 706 642
